<svg width="32" height="32" viewBox="0 0 32 32" fill="none" xmlns="http://www.w3.org/2000/svg">
<rect x="0.5" y="0.5" width="31" height="31" rx="3.5" stroke="#E00957"/>
<path d="M19.1764 22.2825H19.2222L19.2262 22.2369L20.1399 11.8249L21.2034 11.9181L20.2738 22.5122C20.2737 22.5123 20.2737 22.5124 20.2737 22.5125C20.2261 22.9851 19.8214 23.3501 19.3527 23.3501H12.2694C11.8003 23.3501 11.3959 22.9847 11.3492 22.5195C11.3492 22.5194 11.3492 22.5193 11.3491 22.5192L10.4189 11.9181L11.4824 11.8249L12.3959 22.2369L12.3999 22.2825H12.4457H19.1764Z" fill="#E00957" stroke="white" stroke-width="0.1"/>
<path d="M13.8648 10.1176H13.8148V10.1676V11.7716H12.7473V9.97298C12.7473 9.46409 13.1614 9.05 13.6703 9.05H17.9513C18.4602 9.05 18.8743 9.46409 18.8743 9.97295V11.7716H17.8067V10.1676V10.1176H17.7567H13.8648Z" fill="#E00957" stroke="white" stroke-width="0.1"/>
<path d="M9.58379 11.2878H22.0378C22.3327 11.2878 22.5716 11.5267 22.5716 11.8216C22.5716 12.1164 22.3327 12.3554 22.0379 12.3554H9.58379C9.28895 12.3554 9.05 12.1164 9.05 11.8216C9.05 11.5267 9.28895 11.2878 9.58379 11.2878Z" fill="#E00957" stroke="white" stroke-width="0.1"/>
</svg>
